# xmcd CD database file generated by Grip 3.2.0
# 
# Track frame offsets:
#       150
#       19102
#       38431
# 
# Disc length: 680 seconds
# 
# Revision: 1
# Processed by: cddbd v1.5.1PL0 Copyright (c) Steve Scherf et al.
# Submitted via: Grip 3.2.0
# 
DISCID=1502a603
DTITLE=The Dead Roads - Demo 20050618
DYEAR=2005
DGENRE=AlternRock
TTITLE0=The Greatest Thing
TTITLE1=St. Kilda Blues
TTITLE2=What The Papers Say
EXTD=YEAR: 2004
EXTT0=
EXTT1=
EXTT2=
PLAYORDER=
